<svg width="30" height="30" viewBox="0 0 30 30" fill="none" xmlns="http://www.w3.org/2000/svg">
<path d="M28.6238 27.272H1.36337C0.610199 27.272 0 27.8825 0 28.6366C0 29.3895 0.610199 30 1.36337 30H28.6232C29.3764 30 29.9866 29.3895 29.9866 28.6366C29.9859 27.8825 29.3757 27.272 28.6238 27.272Z" fill="#747474"/>
<path d="M3.06699 23.7259C2.31381 23.7259 1.70361 24.3364 1.70361 25.0899C1.70361 25.8435 2.31381 26.4546 3.06699 26.4546H26.9197C27.6728 26.4546 28.283 25.8435 28.283 25.0899C28.283 24.3364 27.6728 23.7259 26.9197 23.7259H26.5794V11.4522H26.9197C27.2969 11.4522 27.6007 11.147 27.6007 10.7709C27.6007 10.3947 27.2956 10.0895 26.9197 10.0895H3.06699C2.6904 10.0895 2.38594 10.3947 2.38594 10.7709C2.38594 11.147 2.69104 11.4522 3.06699 11.4522H3.40783V23.7253H3.06699V23.7259ZM23.8527 11.4522V23.7253H19.7639V11.4522H23.8527ZM17.0371 11.4522V23.7253H12.9483V11.4522H17.0371ZM6.1333 11.4522H10.2221V23.7253H6.1333V11.4522Z" fill="#747474"/>
<path d="M1.3634 8.8633H28.6232C28.6277 8.8633 28.6328 8.8633 28.6366 8.8633C29.3904 8.8633 30 8.25281 30 7.49927C30 6.90028 29.6145 6.3926 29.079 6.20868L15.5537 0.119735C15.1982 -0.0399118 14.7916 -0.0399118 14.4354 0.119735L0.804263 6.25594C0.217681 6.52032 -0.104653 7.15763 0.0306635 7.786C0.165341 8.41437 0.720648 8.8633 1.3634 8.8633Z" fill="#747474"/>
</svg>
