<svg width="26" height="21" viewBox="0 0 26 21" fill="none" xmlns="http://www.w3.org/2000/svg">
<path d="M6.89197 21H11.3963V16.3095H14.1037V21H18.6081V0H6.89197V21ZM13.5719 2.47485H16.2793V5.23197H13.5719V2.47485ZM13.5719 6.90595H16.2793V9.66307H13.5719V6.90595ZM13.5719 11.3369H16.2793V14.0941H13.5719V11.3369ZM9.22067 2.47485H11.9281V5.23197H9.22067V2.47485ZM9.22067 6.90595H11.9281V9.66307H9.22067V6.90595ZM9.22067 11.3369H11.9281V14.0941H9.22067V11.3369Z" fill="white"/>
<path d="M19.6598 1.88118V16.7298H21.3992V21H25.5V1.88118H19.6598ZM23.3799 14.7128H20.915V12.2027H23.3799V14.7128H23.3799ZM23.3799 10.6786H20.915V8.16855H23.3799V10.6786H23.3799ZM23.3799 6.64446H20.915V4.13441H23.3799V6.64446H23.3799Z" fill="white"/>
<path d="M0 21H4.10083V16.7298H5.84024V1.88118H0V21ZM2.12012 4.13441H4.58501V6.64446H2.12012V4.13441ZM2.12012 8.16855H4.58501V10.6786H2.12012V8.16855ZM2.12012 12.2026H4.58501V14.7126H2.12012V12.2026Z" fill="white"/>
</svg>
