<svg width="25" height="19" viewBox="0 0 25 19" fill="none" xmlns="http://www.w3.org/2000/svg">
<path d="M2.65272 13.5376C2.46291 13.7274 2.2372 13.8813 1.99609 13.9839V15.2921V17.4569C1.99609 17.975 2.41674 18.3905 2.92973 18.3905H5.03297C5.55109 18.3905 5.9666 17.9698 5.9666 17.4569V15.2921V12.5322V10.3674C5.9666 10.3212 5.96147 10.275 5.95634 10.234L2.65272 13.5376Z" fill="#747474"/>
<path d="M24.4348 0C24.4143 0 24.3937 0 24.3681 0C22.9523 0.0666882 21.5313 0.133376 20.1154 0.200065C19.8949 0.210324 19.6794 0.220584 19.5563 0.487337C19.4332 0.74896 19.5717 0.897726 19.7256 1.05162C20.1616 1.48766 20.5925 1.92883 21.0337 2.35461L20.5515 2.83681L16.6271 6.76116L16.2783 7.10999L15.4216 7.96668L12.0462 11.3421L11.8512 11.1472L7.81405 7.10999L6.95737 6.2533L6.72652 6.02246C6.54185 5.83778 6.30587 5.75058 6.06477 5.75058C5.82367 5.75058 5.58769 5.84291 5.40302 6.02246L5.17218 6.2533L0.273165 11.1523C-0.0910549 11.5165 -0.0910549 12.1116 0.273165 12.4758L0.504008 12.7067C0.688683 12.8913 0.924656 12.9786 1.16576 12.9786C1.40686 12.9786 1.64284 12.8862 1.82751 12.7067L6.06477 8.4694L6.25971 8.66434L10.2969 12.7015L11.1536 13.5582L11.3844 13.7891C11.5691 13.9737 11.8051 14.061 12.0462 14.061C12.2873 14.061 12.5233 13.9686 12.7079 13.7891L12.9388 13.5582L16.976 9.52102L17.8327 8.66434L18.1815 8.31551L22.1058 4.39116L22.5829 3.91408L23.8654 5.18629C23.9834 5.30428 24.1013 5.43252 24.2706 5.43252C24.3322 5.43252 24.404 5.412 24.481 5.37097C24.7374 5.23246 24.7939 5.00675 24.8041 4.75538C24.8657 3.37032 24.9324 1.99039 24.9991 0.605324C25.0145 0.189805 24.84 0 24.4348 0Z" fill="#747474"/>
<path d="M10.3097 14.3995L9.45302 13.5428L7.60627 11.696C7.5242 11.8346 7.47803 11.9987 7.47803 12.168V12.5373V17.0927V17.462C7.47803 17.9801 7.89868 18.3956 8.41166 18.3956H10.5149C11.033 18.3956 11.4485 17.975 11.4485 17.462V17.0927V15.169C11.11 15.0715 10.797 14.8868 10.5406 14.6303L10.3097 14.3995Z" fill="#747474"/>
<path d="M13.7754 14.3996L13.5445 14.6304C13.3752 14.7997 13.1803 14.9382 12.9648 15.0408V17.0928V17.4621C12.9648 17.9802 13.3855 18.3957 13.8985 18.3957H16.0017C16.5198 18.3957 16.9353 17.9751 16.9353 17.4621V17.0928V12.5374V12.1681C16.9353 11.9116 16.8327 11.6808 16.6635 11.5115L13.7754 14.3996Z" fill="#747474"/>
<path d="M19.016 9.1517L18.6671 9.50053L18.4414 9.72624V10.3675V10.8086V12.5323V12.9734V15.287V17.4518C18.4414 17.9699 18.8621 18.3854 19.375 18.3854H21.4783C21.9964 18.3854 22.4119 17.9648 22.4119 17.4518V15.287V12.9786V12.5374V10.8138V10.3726V8.05391V5.88911C22.4119 5.84807 22.4068 5.80703 22.4017 5.76599L19.016 9.1517Z" fill="#747474"/>
</svg>
