<svg width="22" height="21" viewBox="0 0 22 21" fill="none" xmlns="http://www.w3.org/2000/svg">
<path d="M21.3121 2.7496L5.50014 2.7496V0.687173C5.50014 0.409433 5.3324 0.157818 5.07528 0.0519466C4.81817 -0.0539245 4.52393 0.00519834 4.32593 0.200441L0.201086 4.32529C-0.0670288 4.5934 -0.0670288 5.02926 0.201086 5.29738L4.32593 9.42223C4.52393 9.61884 4.81817 9.67797 5.07528 9.5721C5.3324 9.46622 5.50014 9.21461 5.50014 8.93687L5.50014 6.87444L21.3121 6.87444C21.6915 6.87444 21.9995 6.56646 21.9995 6.18697V3.43707C21.9995 3.05621 21.6915 2.7496 21.3121 2.7496Z" fill="#747474"/>
<path d="M21.7989 15.3262L17.6741 11.2C17.4775 11.0034 17.1819 10.9443 16.9247 11.0515C16.6676 11.1588 16.4999 11.409 16.4999 11.6867V13.7492L0.687963 13.7492C0.308477 13.7492 0.000488281 14.0572 0.000488281 14.4366L0.000488281 17.1865C0.000488281 17.566 0.308477 17.874 0.687963 17.874L16.4999 17.874V19.9364C16.4999 20.2142 16.6676 20.4658 16.9247 20.5717C17.1819 20.6789 17.4775 20.6198 17.6741 20.4232L21.7989 16.2983C22.067 16.0302 22.067 15.5943 21.7989 15.3262Z" fill="#747474"/>
</svg>
