<svg width="20" height="20" viewBox="0 0 20 20" fill="none" xmlns="http://www.w3.org/2000/svg">
<g clip-path="url(#clip0)">
<path d="M18.3888 15.7902L18.3214 15.8711C16.1024 18.5335 13.1466 20.0005 10.0003 20.0005C6.85352 20.0005 3.89823 18.534 1.67875 15.8711L1.61182 15.7902L1.62762 15.6865C2.05618 12.8911 3.51662 10.6456 5.73983 9.36228L5.89786 9.27117L6.02383 9.40318C7.07384 10.5048 8.48594 11.1109 9.99984 11.1109C11.5137 11.1109 12.9258 10.5043 13.9759 9.40318L14.1018 9.27117L14.2599 9.36228C16.4831 10.6456 17.9435 12.8911 18.3725 15.6865L18.3888 15.7902ZM10.0003 9.98838C12.7539 9.98838 14.9943 7.74798 14.9943 4.99442C14.9943 2.24087 12.7539 0 10.0003 0C7.24675 0 5.00635 2.24087 5.00635 4.99396C5.00635 7.74705 7.24675 9.98838 10.0003 9.98838Z" fill="#AE8A4D"/>
</g>
<defs>
<clipPath id="clip0">
<rect width="20" height="20" fill="white"/>
</clipPath>
</defs>
</svg>
