<svg width="25" height="19" viewBox="0 0 25 19" fill="none" xmlns="http://www.w3.org/2000/svg">
<path d="M20.3125 9.375C19.45 9.375 18.75 10.075 18.75 10.9375C18.75 11.8 19.45 12.5 20.3125 12.5H25V9.375H20.3125Z" fill="#747474"/>
<path d="M20.3125 7.8125H23.4375V3.90625C23.4375 3.475 23.0875 3.125 22.6562 3.125H20.3125V0.78125C20.3125 0.35 19.9625 0 19.5312 0H2.34375C1.05156 0 0 1.05156 0 2.34375V16.4062C0 17.6984 1.05156 18.75 2.34375 18.75H22.6562C23.0875 18.75 23.4375 18.4 23.4375 17.9688V14.0625H20.3125C18.5891 14.0625 17.1875 12.6609 17.1875 10.9375C17.1875 9.21406 18.5891 7.8125 20.3125 7.8125ZM2.34375 3.125C1.9125 3.125 1.5625 2.775 1.5625 2.34375C1.5625 1.9125 1.9125 1.5625 2.34375 1.5625H18.75V3.125H2.34375Z" fill="#747474"/>
</svg>
